<?xml version="1.0" encoding="UTF-8"?>
<svg width="669px" height="166px" viewBox="0 0 669 166" version="1.1" xmlns="http://www.w3.org/2000/svg" xmlns:xlink="http://www.w3.org/1999/xlink">
    <title>Artboard</title>
    <g id="Artboard" stroke="none" stroke-width="1" fill="none" fill-rule="evenodd">
        <path d="M428.15,137.656 C435.027,137.656 439.928,141.874 439.928,150.422 L439.928,153.348 C439.928,161.972 435.141,166 428.112,166 C420.665,166 416.371,162.01 416.371,153.348 L416.371,150.422 C416.371,141.912 421.083,137.656 428.15,137.656 Z M509.051,137.656 C515.928,137.656 520.829,141.874 520.829,150.422 L520.829,153.348 C520.829,161.972 516.041,166 509.013,166 C501.566,166 497.272,162.01 497.272,153.348 L497.272,150.422 C497.272,141.912 501.984,137.656 509.051,137.656 Z M657.249,137.618 C664.203,137.618 667.812,140.772 667.888,146.546 L667.888,146.584 L660.935,146.584 L660.935,146.546 C660.821,144.267 659.719,143.204 657.098,143.204 C654.704,143.204 653.83,144.343 653.83,145.672 C653.83,147.686 656.452,148.067 659.529,148.751 C659.674298,148.784333 659.820253,148.81818 659.96664,148.852722 L660.406878,148.958619 C664.30317,149.91569 668.346667,151.489263 668.382,157.071 C668.382,162.39 664.696,166 657.553,166 C649.119,166 646.269,162.428 646.193,156.045 L646.193,156.007 L653.45,156.007 L653.45,156.122 C653.488,158.705 654.742,160.073 657.744,160.073 C660.251,160.073 661.353,158.895 661.353,157.337 C661.391,155.171 658.579,154.715 655.464,154.032 L655.03426,153.934414 C651.081063,153.023674 646.801,151.621368 646.801,145.939 C646.801,141.152 650.296,137.618 657.249,137.618 Z M633.955,137.618 C640.909,137.618 644.518,140.772 644.594,146.546 L644.594,146.584 L637.641,146.584 L637.641,146.546 C637.527,144.267 636.425,143.204 633.804,143.204 C631.41,143.204 630.536,144.343 630.536,145.672 C630.536,147.686 633.158,148.067 636.235,148.751 C640.377,149.701 645.05,151.068 645.088,157.071 C645.088,162.39 641.403,166 634.26,166 C625.825,166 622.975,162.428 622.899,156.045 L622.899,156.007 L630.156,156.007 L630.156,156.122 C630.194,158.705 631.448,160.073 634.45,160.073 C636.957,160.073 638.059,158.895 638.059,157.337 C638.097,155.171 635.286,154.715 632.17,154.032 C628.104,153.12 623.507,151.828 623.507,145.939 C623.507,141.152 627.003,137.618 633.955,137.618 Z M483.363,137.656 C490.468,137.656 494.647,141.114 495.027,148.256 L495.027,149.092 L487.694,149.092 L487.694,148.674 C487.504,145.521 486.288,143.887 483.363,143.887 C480.171,143.887 478.727,146.09 478.727,150.688 L478.727,153.043 C478.727,157.413 480.209,159.541 483.363,159.541 C486.25,159.541 487.504,157.793 487.732,154.564 L487.732,154.07 L495.141,154.07 L495.141,154.753 C494.799,162.428 490.658,166 483.173,166 C475.574,166 471.509,162.048 471.509,153.69 L471.509,150.232 C471.509,141.797 476.106,137.656 483.363,137.656 Z M562.327,137.656 C569.431,137.656 573.193,141.265 573.345,147.991 L573.345,148.18 L566.278,148.18 L566.278,148.142 C566.164,145.445 565.1,143.887 562.212,143.887 C558.945,143.887 557.539,145.977 557.539,150.574 L557.539,153.234 C557.501,158.211 558.945,159.92 562.174,159.92 C564.91,159.92 566.278,158.059 566.43,155.627 L561.642,155.627 L561.642,150.878 L573.307,150.878 L573.307,165.43 L567.76,165.43 L567.19,159.123 C566.582,162.922 564.34,166 559.591,166 C553.245,166 550.358,162.201 550.358,153.538 L550.358,150.27 C550.358,141.721 554.994,137.656 562.327,137.656 Z M620.958,138.188 L620.958,144.115 L608.61,144.115 L608.61,148.674 L619.743,148.674 L619.743,154.639 L608.61,154.639 L608.61,159.237 L621.338,159.237 L621.338,165.43 L601.809,165.43 L601.809,138.188 L620.958,138.188 Z M587.938,138.188 C595.613,138.188 598.614,141.57 598.614,146.661 C598.614,150.118 597.17,152.246 594.701,153.423 C596.867,154.374 598.006,156.197 598.006,159.579 L598.006,163.91 C598.006,164.632 598.234,165.126 598.652,165.43 L591.509,165.43 C591.129,165.164 590.901,164.518 590.901,163.796 L590.901,159.844 C590.901,157.185 589.875,156.311 587.14,156.311 L583.759,156.311 L583.759,165.43 L576.919,165.43 L576.919,138.188 L587.938,138.188 Z M530.635,138.188 L540.589,154.259 L540.589,138.188 L547.086,138.188 L547.086,165.43 L540.742,165.43 L530.597,149.092 L530.597,165.43 L524.1,165.43 L524.1,138.188 L530.635,138.188 Z M461.626,138.188 L461.626,144.381 L450,144.381 L450,149.663 L461.095,149.663 L461.095,155.855 L450,155.855 L450,165.43 L443.199,165.43 L443.199,138.188 L461.626,138.188 Z M273.825,0.182 L288.701,165.373 L261.391,165.373 L259.837,135.621 L250.289,135.621 L248.735,165.373 L224.534,165.373 L238.3,0.182 L273.825,0.182 Z M27.976,0.182 L28.198,139.173 L45.96,139.173 L45.738,165.373 L-3.55271368e-15,165.373 L-3.55271368e-15,0.182 L27.976,0.182 Z M80.442,0.182 L80.442,165.373 L52.244,165.373 L52.244,0.182 L80.442,0.182 Z M130.175,0.182 C141.498,0.182 148.825,5.955 148.825,21.053 L148.825,58.354 C148.825,69.456 141.498,74.562 137.946,75.672 C142.386,76.783 151.045,81.667 151.045,94.989 L151.045,140.284 C151.045,156.936 143.94,165.373 129.953,165.373 L87.545,165.373 L87.545,0.182 L130.175,0.182 Z M386.013,0.182 L390.898,57.244 L395.782,0.182 L420.872,0.182 L404.22,100.318 L404.22,165.373 L376.244,165.373 L376.244,100.318 L358.037,0.182 L386.013,0.182 Z M338.056,0.182 C347.826,0.182 355.597,6.399 355.597,19.943 L355.597,58.798 C355.597,70.122 350.268,74.562 345.605,76.561 C350.268,78.559 356.04,83.221 356.04,91.88 L356.04,157.379 C356.04,160.71 356.485,163.153 357.373,164.707 L357.373,165.373 L329.619,165.373 C328.509,163.819 327.843,161.598 327.843,158.49 L327.843,96.544 C327.843,94.101 327.399,92.769 324.734,92.769 L322.514,92.769 L322.514,165.373 L294.316,165.373 L294.316,0.182 L338.056,0.182 Z M201,0.182 C210.769,0.182 218.54,6.399 218.54,19.943 L218.54,58.798 C218.54,70.122 213.212,74.562 208.549,76.561 C213.212,78.559 218.985,83.221 218.985,91.88 L218.985,157.379 C218.985,160.71 219.429,163.153 220.317,164.707 L220.317,165.373 L192.563,165.373 C191.453,163.819 190.787,161.598 190.787,158.49 L190.787,96.544 C190.787,94.101 190.343,92.769 187.678,92.769 L185.458,92.769 L185.458,165.373 L157.26,165.373 L157.26,0.182 L201,0.182 Z M509.051,143.887 C505.859,143.887 504.529,146.243 504.529,150.726 L504.529,152.967 C504.529,157.451 505.859,159.731 509.051,159.731 C512.204,159.731 513.572,157.527 513.572,152.967 L513.572,150.764 C513.572,146.128 512.204,143.887 509.051,143.887 Z M428.15,143.887 C424.958,143.887 423.629,146.243 423.629,150.726 L423.629,152.967 C423.629,157.451 424.958,159.731 428.15,159.731 C431.304,159.731 432.671,157.527 432.671,152.967 L432.671,150.764 C432.671,146.128 431.304,143.887 428.15,143.887 Z M587.786,144.039 L583.759,144.039 L583.759,150.346 L587.748,150.346 C590.293,150.346 591.585,149.13 591.585,147.117 C591.585,145.179 590.446,144.039 587.786,144.039 Z M118.407,88.55 L115.743,88.55 L115.743,143.835 L118.407,143.835 C121.293,143.835 121.738,142.503 121.738,139.618 L121.738,92.991 C121.738,89.66 121.071,88.55 118.407,88.55 Z M513.649,106.188 L523.224,133.43 L516.232,133.43 L514.713,128.643 L505.632,128.643 L504.15,133.43 L497.121,133.43 L506.582,106.188 L513.649,106.188 Z M536.145,106.188 C543.82,106.188 546.822,109.57 546.822,114.661 C546.822,118.118 545.378,120.246 542.908,121.423 C545.074,122.374 546.214,124.197 546.214,127.579 L546.214,131.91 C546.214,132.632 546.442,133.126 546.86,133.43 L539.717,133.43 C539.337,133.164 539.109,132.518 539.109,131.796 L539.109,127.844 C539.109,125.185 538.083,124.311 535.347,124.311 L531.966,124.311 L531.966,133.43 L525.127,133.43 L525.127,106.188 L536.145,106.188 Z M555.184,106.188 L559.895,115.991 L564.834,106.188 L572.167,106.188 L563.429,122.944 L563.429,133.43 L556.21,133.43 L556.21,122.83 L547.813,106.188 L555.184,106.188 Z M460.336,106.188 C467.745,106.188 470.974,108.696 470.974,113.254 C470.974,116.409 469.796,118.346 467.631,119.41 C470.138,120.398 471.582,122.259 471.582,125.489 C471.582,130.543 468.429,133.43 461.437,133.43 L449.773,133.43 L449.773,106.188 L460.336,106.188 Z M485.377,106.188 C493.052,106.188 496.054,109.57 496.054,114.661 C496.054,118.118 494.61,120.246 492.14,121.423 C494.306,122.374 495.446,124.197 495.446,127.579 L495.446,131.91 C495.446,132.632 495.674,133.126 496.092,133.43 L488.949,133.43 C488.569,133.164 488.341,132.518 488.341,131.796 L488.341,127.844 C488.341,125.185 487.315,124.311 484.579,124.311 L481.198,124.311 L481.198,133.43 L474.359,133.43 L474.359,106.188 L485.377,106.188 Z M445.706,106.188 L445.706,133.43 L438.601,133.43 L438.601,106.188 L445.706,106.188 Z M424.274,106.188 L424.274,126.628 L435.711,126.628 L435.711,133.43 L417.132,133.43 L417.132,106.188 L424.274,106.188 Z M460.298,122.108 L456.574,122.108 L456.574,127.541 L460.26,127.541 C463.565,127.541 464.553,126.591 464.553,124.805 C464.553,122.981 463.413,122.108 460.298,122.108 Z M510.077,114.167 L507.342,123.019 L512.889,123.019 L510.077,114.167 Z M485.225,112.039 L481.198,112.039 L481.198,118.346 L485.187,118.346 C487.733,118.346 489.024,117.13 489.024,115.117 C489.024,113.179 487.885,112.039 485.225,112.039 Z M535.993,112.039 L531.966,112.039 L531.966,118.346 L535.955,118.346 C538.501,118.346 539.792,117.13 539.792,115.117 C539.792,113.179 538.653,112.039 535.993,112.039 Z M460.64,111.659 L456.574,111.659 L456.574,116.827 L460.64,116.827 C463.071,116.827 464.211,115.991 464.211,114.167 C464.211,112.457 463.185,111.659 460.64,111.659 Z M255.174,48.585 L251.844,111.419 L258.504,111.419 L255.174,48.585 Z M187.9,21.053 L185.458,21.053 L185.458,69.233 L187.678,69.233 C189.677,69.233 190.787,67.901 190.787,65.459 L190.787,24.827 C190.787,22.163 190.343,21.053 187.9,21.053 Z M324.956,21.053 L322.514,21.053 L322.514,69.233 L324.734,69.233 C326.732,69.233 327.843,67.901 327.843,65.459 L327.843,24.827 C327.843,22.163 327.399,21.053 324.956,21.053 Z M117.741,21.053 L115.743,21.053 L115.743,68.124 L117.741,68.124 C119.961,68.124 121.071,66.791 121.071,63.905 L121.071,25.049 C121.071,22.163 120.627,21.053 117.741,21.053 Z" id="Combined-Shape" fill="#FFFFFE" fill-rule="nonzero"></path>
    </g>
</svg>